# xmcd
#
# Track frame offsets: 
#        150
#        9849
#        24276
#        39410
#        51696
#        63876
#        87790
#        99265
#        111995
#        124603
#        134136
#        145571
#        158085
#        170997
#        185631
#        196085
#        210507
#        223263
#        235554
#        248288
#        260302
#        272369
#
# Disc length: 3815 seconds
#
# Revision: 1
# Processed by: cddbd v1.5.2PL0 Copyright (c) Steve Scherf et al.
# Submitted via: ExactAudioCopy v0.99pb5
#
DISCID=270ee516
DTITLE=Combo Moderno - The best of
DYEAR=2009
DGENRE=Salsa
TTITLE0=Con la Mano Arriba
TTITLE1=Guaguanco de los Indios
TTITLE2=Rumbon Caliente
TTITLE3=Flamenco Mambo
TTITLE4=Guaguanco de Bayamon
TTITLE5=Suena la Descarga
TTITLE6=El Guapo
TTITLE7=Escucha mi Guaguanco
TTITLE8=Yo soy la Rumba
TTITLE9=El Guiso
TTITLE10=Perico Perejil
TTITLE11=Que Jelengue
TTITLE12=Donde estan los Rumberos
TTITLE13=Trucutu
TTITLE14=Mi Ultimo Guaguanco
TTITLE15=La Pase Gozando
TTITLE16=Asoma el Coco
TTITLE17=Casabe con Longaniza
TTITLE18=No lo Creas
TTITLE19=Cantara
TTITLE20=Cuando no me Querian
TTITLE21=No Puedo Olvidarme
EXTD=YEAR: 2009
EXTT0=
EXTT1=
EXTT2=
EXTT3=
EXTT4=
EXTT5=
EXTT6=
EXTT7=
EXTT8=
EXTT9=
EXTT10=
EXTT11=
EXTT12=
EXTT13=
EXTT14=
EXTT15=
EXTT16=
EXTT17=
EXTT18=
EXTT19=
EXTT20=
EXTT21=
PLAYORDER=
